<svg width="30" height="31" viewBox="0 0 30 31" fill="none" xmlns="http://www.w3.org/2000/svg">
<path d="M25.7142 24.645L25.3866 20.3867C25.3255 19.5928 24.7551 18.9427 24.0137 18.7486V10.2148C24.0137 9.96057 23.8076 9.75446 23.5533 9.75446H14.1508C13.8965 9.75446 13.6904 9.96057 13.6904 10.2148C13.6904 10.4691 13.8965 10.6752 14.1508 10.6752H23.093V18.7486C22.3515 18.9427 21.7812 19.5928 21.7201 20.3867L21.3925 24.645C21.3671 24.9043 21.5908 25.1464 21.8515 25.1407H25.2552C25.5156 25.1463 25.7399 24.9044 25.7142 24.645ZM22.3487 24.22L22.6381 20.4573C22.6747 19.9821 23.0767 19.6098 23.5533 19.6098C24.03 19.6098 24.432 19.9821 24.4686 20.4573L24.758 24.2199L22.3487 24.22Z" fill="#33CCCC"/>
<path d="M21.4175 10.6753L14.1491 13.9641L5.8632 10.2149L14.1491 6.46564L21.4175 9.75453H23.5516C23.6284 9.75453 23.7006 9.77357 23.7642 9.8068C23.7674 9.79596 14.3448 5.55136 14.3388 5.5409C14.2182 5.48637 14.0799 5.48637 13.9592 5.5409L4.5567 9.79546C4.39197 9.87 4.28613 10.0341 4.28613 10.2149C4.28613 10.3957 4.39197 10.5598 4.5567 10.6343L7.30689 11.8788V17.208C7.30689 17.7305 7.68782 18.4692 9.50243 19.0212C11.9499 19.8001 16.3482 19.8001 18.7957 19.0212C20.6103 18.4692 20.9913 17.7304 20.9913 17.208V11.8788L23.0913 10.9285V10.6753H21.4175ZM20.0705 17.2079C20.0705 17.3941 19.6596 17.796 18.5277 18.1404C17.3646 18.4942 15.8096 18.6891 14.1491 18.6891C12.4885 18.6891 10.9335 18.4942 9.7704 18.1404C8.63846 17.796 8.22761 17.3941 8.22761 17.2079V12.2953L13.9593 14.8888C14.0196 14.9161 14.0843 14.9298 14.1491 14.9298C14.2138 14.9298 14.2785 14.9161 14.3388 14.8888L20.0705 12.2953V17.2079Z" fill="white"/>
</svg>
