<svg width="27" height="13" viewBox="0 0 27 13" fill="none" xmlns="http://www.w3.org/2000/svg">
<mask id="mask0_2883_21716" style="mask-type:luminance" maskUnits="userSpaceOnUse" x="0" y="0" width="27" height="13">
<path d="M0.0927734 0.864746H26.3312V12.9999H0.0927734V0.864746Z" fill="white"/>
</mask>
<g mask="url(#mask0_2883_21716)">
<path d="M16.2592 11.0291H17.7344V12.999H19.8393V11.0291H18.6204L20.6893 8.47678L22.7608 11.0291H21.5402V12.999H26.331V11.0291H25.4324L22.0246 6.82934L25.301 2.78698H26.331V0.864746H21.5402V2.78743H22.6286L20.6879 5.18235L18.745 2.78788H19.8388V0.864746H16.2588V3.01725L19.3522 6.82979L16.2588 10.6459L16.2592 11.0291Z" fill="#AFB5BE"/>
<path d="M16.2594 3.01725V0.864746H15.0244V2.78743H16.0723L16.2594 3.01725ZM17.7342 11.0291H16.259V10.6455L15.9478 11.0291H15.0244V12.999H17.7337L17.7342 11.0291Z" fill="#AFB5BE"/>
<path d="M7.3338 10.1266H9.03521C8.83622 10.6207 8.55405 11.077 8.20092 11.4758C7.83671 11.0791 7.5434 10.6227 7.3338 10.1266ZM8.20092 5.12085C7.70692 5.65868 7.34532 6.30442 7.1449 7.00666C7.22436 7.16182 7.28896 7.32415 7.33785 7.49149H9.02171C9.07228 7.32632 9.13855 7.16638 9.2196 7.01385C9.03102 6.31256 8.68231 5.66457 8.20092 5.12085ZM7.3374 7.49104C7.48581 8.00222 7.49017 8.54446 7.34999 9.05797H9.00642C8.85937 8.54533 8.86406 8.00106 9.01992 7.49104H7.3374ZM7.3374 7.49104H7.03382C6.94449 8.00932 6.94191 8.53884 7.02617 9.05797H7.34999C7.49017 8.54446 7.48581 8.00222 7.3374 7.49104Z" fill="#AFB5BE"/>
<path d="M16.0718 2.78759H15.0238V0.865356H13.0449V2.78759H14.3231V4.44492C13.5487 3.88904 12.6184 3.59216 11.6651 3.59669C11.0132 3.59588 10.3682 3.73106 9.77144 3.99358C9.17469 4.2561 8.63924 4.6402 8.19932 5.12135C8.68024 5.6652 9.02848 6.31318 9.21665 7.01435C9.45001 6.57335 9.79921 6.20433 10.2267 5.94702C10.6541 5.6897 11.1437 5.55382 11.6426 5.55401C13.1583 5.55401 14.3231 6.78273 14.3231 8.29749V8.31233C14.3155 9.8208 13.1538 11.0414 11.6426 11.0414C11.1437 11.0416 10.6541 10.9057 10.2267 10.6484C9.79921 10.3911 9.45001 10.0221 9.21665 9.58108C9.1283 9.41466 9.05746 9.23952 9.00527 9.05847H7.02637C7.08609 9.42514 7.18921 9.78341 7.33355 10.1257H9.03361C8.83462 10.6198 8.55244 11.0762 8.19932 11.475C8.63924 11.9561 9.17469 12.3402 9.77144 12.6028C10.3682 12.8653 11.0132 13.0004 11.6651 12.9996C12.2967 13.0029 12.9219 12.8736 13.5005 12.6202C14.079 12.3668 14.5979 11.9949 15.0238 11.5285V11.0302H15.9458L16.2571 10.6461V3.01786L16.0718 2.78759ZM14.3236 12.1514V13.0023H15.0238V11.5285C14.8123 11.7598 14.5775 11.9687 14.3231 12.1519L14.3236 12.1514ZM7.1442 7.00716C7.09855 7.16664 7.06161 7.32849 7.03356 7.49199H7.33715C7.28826 7.32466 7.22366 7.16232 7.1442 7.00716Z" fill="#AFB5BE"/>
<path d="M9.32182 7.49261C9.29543 7.33175 9.2609 7.17234 9.21838 7.01497C9.13732 7.1675 9.07106 7.32745 9.02049 7.49261C8.86463 8.00264 8.85994 8.54691 9.007 9.05954H9.32902C9.40912 8.54011 9.40669 8.01129 9.32182 7.49261ZM4.79418 3.59777C2.50855 3.59777 0.553928 5.24134 0.161745 7.49261H2.1483C2.50216 6.34053 3.56649 5.55427 4.77169 5.55418C5.26314 5.55218 5.74543 5.68706 6.16454 5.94372C6.58364 6.20038 6.923 6.56867 7.14458 7.00733C7.34498 6.30509 7.70658 5.65935 8.20059 5.12152C7.77436 4.63917 7.24989 4.25357 6.66236 3.99061C6.07484 3.72764 5.43786 3.59339 4.79418 3.59687V3.59777ZM6.78208 10.1282C6.53317 10.4172 6.22445 10.6488 5.87727 10.8069C5.53009 10.965 5.15272 11.0459 4.77124 11.0438C4.17606 11.044 3.59696 10.8506 3.1213 10.4929C2.64565 10.1351 2.29925 9.63233 2.13435 9.06044H7.02629C6.94203 8.54131 6.94462 8.01179 7.03394 7.49351H0.161745C0.0724243 8.01179 0.0698405 8.54131 0.1541 9.06044C0.527618 11.3326 2.49146 13.0001 4.79418 13.0003C5.43804 13.0036 6.07517 12.8692 6.66278 12.606C7.25039 12.3428 7.77489 11.9569 8.20104 11.4743C7.83683 11.0775 7.54352 10.6211 7.33392 10.125H6.78253L6.78208 10.1282Z" fill="#AFB5BE"/>
</g>
</svg>
