<svg width="19" height="18" viewBox="0 0 19 18" fill="none" xmlns="http://www.w3.org/2000/svg">
<g clip-path="url(#clip0_2883_21710)">
<path d="M18.1514 5.30506C18.1101 4.36944 17.9588 3.72621 17.7421 3.16884C17.5185 2.57721 17.1745 2.04753 16.7238 1.6072C16.2835 1.16001 15.7503 0.812532 15.1655 0.592434C14.6049 0.375696 13.9651 0.224395 13.0294 0.183143C12.0868 0.138398 11.7876 0.128052 9.39689 0.128052C7.00618 0.128052 6.70694 0.138398 5.76783 0.17965C4.83221 0.220901 4.18898 0.372336 3.63175 0.588941C3.03998 0.812532 2.51029 1.15652 2.06996 1.6072C1.62278 2.04753 1.27544 2.58071 1.0552 3.16548C0.838464 3.72621 0.687164 4.36594 0.645912 5.30156C0.601167 6.24417 0.59082 6.54341 0.59082 8.93412C0.59082 11.3248 0.601167 11.6241 0.642418 12.5632C0.68367 13.4988 0.835105 14.142 1.05184 14.6994C1.27544 15.291 1.62278 15.8207 2.06996 16.261C2.51029 16.7082 3.04347 17.0557 3.62825 17.2758C4.18898 17.4925 4.82871 17.6438 5.76447 17.6851C6.70344 17.7265 7.00282 17.7367 9.39353 17.7367C11.7842 17.7367 12.0835 17.7265 13.0226 17.6851C13.9582 17.6438 14.6014 17.4925 15.1587 17.2758C16.3421 16.8183 17.2777 15.8827 17.7352 14.6994C17.9518 14.1387 18.1033 13.4988 18.1445 12.5632C18.1858 11.6241 18.1961 11.3248 18.1961 8.93412C18.1961 6.54341 18.1926 6.24417 18.1514 5.30506ZM16.5657 12.4944C16.5278 13.3544 16.3833 13.8187 16.2629 14.1283C15.967 14.8954 15.3582 15.5043 14.5911 15.8002C14.2815 15.9205 13.8138 16.065 12.9572 16.1028C12.0284 16.1441 11.7498 16.1544 9.40038 16.1544C7.05092 16.1544 6.76888 16.1441 5.84348 16.1028C4.98351 16.065 4.51913 15.9205 4.20954 15.8002C3.82779 15.6591 3.48031 15.4355 3.19827 15.1431C2.90588 14.8575 2.68229 14.5136 2.5412 14.1318C2.4208 13.8222 2.27636 13.3544 2.2386 12.4979C2.19721 11.5691 2.187 11.2904 2.187 8.94097C2.187 6.59151 2.19721 6.30947 2.2386 5.3842C2.27636 4.52423 2.4208 4.05985 2.5412 3.75026C2.68229 3.36838 2.90588 3.02104 3.20176 2.73886C3.48716 2.44647 3.83115 2.22288 4.21303 2.08192C4.52262 1.96153 4.9905 1.81708 5.84697 1.77919C6.77573 1.73794 7.05442 1.72759 9.40374 1.72759C11.7567 1.72759 12.0352 1.73794 12.9606 1.77919C13.8206 1.81708 14.285 1.96153 14.5946 2.08192C14.9763 2.22288 15.3238 2.44647 15.6059 2.73886C15.8982 3.0244 16.1218 3.36838 16.2629 3.75026C16.3833 4.05985 16.5278 4.52759 16.5657 5.3842C16.6069 6.31296 16.6173 6.59151 16.6173 8.94097C16.6173 11.2904 16.6069 11.5656 16.5657 12.4944Z" fill="#AFB5BE"/>
<path d="M9.3955 4.41174C6.89823 4.41174 4.87207 6.43777 4.87207 8.93517C4.87207 11.4326 6.89823 13.4586 9.3955 13.4586C11.8929 13.4586 13.9189 11.4326 13.9189 8.93517C13.9189 6.43777 11.8929 4.41174 9.3955 4.41174ZM9.3955 11.8694C7.7754 11.8694 6.46126 10.5554 6.46126 8.93517C6.46126 7.31494 7.7754 6.00094 9.3955 6.00094C11.0157 6.00094 12.3297 7.31494 12.3297 8.93517C12.3297 10.5554 11.0157 11.8694 9.3955 11.8694Z" fill="#AFB5BE"/>
<path d="M15.1561 4.23143C15.1561 4.81459 14.6833 5.28744 14.1 5.28744C13.5168 5.28744 13.0439 4.81459 13.0439 4.23143C13.0439 3.64813 13.5168 3.17542 14.1 3.17542C14.6833 3.17542 15.1561 3.64813 15.1561 4.23143Z" fill="#AFB5BE"/>
</g>
<defs>
<clipPath id="clip0_2883_21710">
<rect width="17.6087" height="17.6087" fill="white" transform="translate(0.55957 0.128052)"/>
</clipPath>
</defs>
</svg>
