<svg width="17" height="17" viewBox="0 0 17 17" fill="none" xmlns="http://www.w3.org/2000/svg">
<path d="M16.1431 16.9971V11.0815C16.1431 8.1864 15.52 5.95687 12.1355 5.95687C11.5007 5.93399 10.8716 6.08364 10.315 6.38989C9.75849 6.69615 9.29539 7.14755 8.975 7.69607H8.92805V6.22687H5.71875V16.9971H9.05989V11.6693C9.05989 10.2651 9.32627 8.907 11.0655 8.907C12.7812 8.907 12.8047 10.5098 12.8047 11.7596V16.9971H16.1431Z" fill="#AFB5BE"/>
<path d="M0.289062 6.22803H3.6302V17H0.289062V6.22803Z" fill="#AFB5BE"/>
<path d="M1.9568 0.864771C1.57094 0.862807 1.1932 0.975546 0.87154 1.18867C0.549877 1.4018 0.298801 1.70571 0.150189 2.06181C0.00157659 2.4179 -0.0378684 2.81013 0.036862 3.18869C0.111592 3.56725 0.297127 3.91506 0.569911 4.18797C0.842694 4.46088 1.19042 4.64658 1.56895 4.72149C1.94747 4.79639 2.33971 4.75713 2.69588 4.60869C3.05205 4.46024 3.35607 4.2093 3.56935 3.88774C3.78263 3.56618 3.89554 3.18849 3.89376 2.80263C3.89376 2.28883 3.68972 1.79607 3.32649 1.43268C2.96327 1.06928 2.4706 0.865011 1.9568 0.864771Z" fill="#AFB5BE"/>
</svg>
